<svg width="1440" height="836" viewBox="0 0 1440 836" fill="none" xmlns="http://www.w3.org/2000/svg">
<circle cx="73.5" cy="221.439" r="2.5" fill="white" fill-opacity="0.6"/>
<circle cx="201.5" cy="187.439" r="2.5" fill="white" fill-opacity="0.6"/>
<circle cx="205" cy="153.939" r="1" fill="white" fill-opacity="0.6"/>
<path d="M83 145.439C83 147.372 81.433 148.939 79.5 148.939C77.567 148.939 76 147.372 76 145.439C76 143.506 77.567 141.939 79.5 141.939C81.433 141.939 83 143.506 83 145.439Z" fill="white" fill-opacity="0.6"/>
<path d="M143 172.439C143 174.372 141.433 175.939 139.5 175.939C137.567 175.939 136 174.372 136 172.439C136 170.506 137.567 168.939 139.5 168.939C141.433 168.939 143 170.506 143 172.439Z" fill="white" fill-opacity="0.6"/>
<path d="M143 293.439C143 295.372 141.433 296.939 139.5 296.939C137.567 296.939 136 295.372 136 293.439C136 291.506 137.567 289.939 139.5 289.939C141.433 289.939 143 291.506 143 293.439Z" fill="white" fill-opacity="0.6"/>
<circle r="2.5" transform="matrix(-0.438371 -0.898794 -0.898794 0.438371 32.8371 428.62)" fill="white" fill-opacity="0.6"/>
<circle r="1" transform="matrix(-0.438371 -0.898794 -0.898794 0.438371 29.3372 395.12)" fill="white" fill-opacity="0.6"/>
<circle r="1" transform="matrix(-0.438371 -0.898794 -0.898794 0.438371 113.337 390.12)" fill="white" fill-opacity="0.6"/>
<path d="M93.3029 410.474C91.5655 411.321 90.844 413.416 91.6914 415.154C92.5388 416.891 94.6341 417.613 96.3715 416.765C98.1088 415.918 98.8303 413.823 97.9829 412.085C97.1356 410.348 95.0402 409.626 93.3029 410.474Z" fill="white" fill-opacity="0.6"/>
<path d="M121.303 437.474C119.565 438.321 118.844 440.416 119.691 442.154C120.539 443.891 122.634 444.613 124.371 443.765C126.109 442.918 126.83 440.823 125.983 439.085C125.136 437.348 123.04 436.626 121.303 437.474Z" fill="white" fill-opacity="0.6"/>
<path d="M93.3029 531.474C91.5655 532.321 90.844 534.416 91.6914 536.154C92.5388 537.891 94.6341 538.613 96.3715 537.765C98.1088 536.918 98.8303 534.823 97.9829 533.085C97.1356 531.348 95.0402 530.626 93.3029 531.474Z" fill="white" fill-opacity="0.6"/>
<circle r="2.5" transform="matrix(-1 0 0 1 625.5 221.439)" fill="white" fill-opacity="0.6"/>
<circle r="1" transform="matrix(-1 0 0 1 494 153.939)" fill="white" fill-opacity="0.6"/>
<circle r="1" transform="matrix(-0.438371 -0.898794 -0.898794 0.438371 404.18 186.12)" fill="white" fill-opacity="0.6"/>
<path d="M384.146 206.474C382.408 207.321 381.687 209.416 382.534 211.154C383.382 212.891 385.477 213.613 387.214 212.765C388.952 211.918 389.673 209.823 388.826 208.085C387.978 206.348 385.883 205.626 384.146 206.474Z" fill="white" fill-opacity="0.6"/>
<path d="M384.146 327.474C382.408 328.321 381.687 330.416 382.534 332.154C383.382 333.891 385.477 334.613 387.214 333.765C388.952 332.918 389.673 330.823 388.826 329.085C387.978 327.348 385.883 326.626 384.146 327.474Z" fill="white" fill-opacity="0.6"/>
<circle r="1" transform="matrix(-1 0 0 1 578 148.939)" fill="white" fill-opacity="0.6"/>
<path d="M616 145.439C616 147.372 617.567 148.939 619.5 148.939C621.433 148.939 623 147.372 623 145.439C623 143.506 621.433 141.939 619.5 141.939C617.567 141.939 616 143.506 616 145.439Z" fill="white" fill-opacity="0.6"/>
<path d="M556 293.439C556 295.372 557.567 296.939 559.5 296.939C561.433 296.939 563 295.372 563 293.439C563 291.506 561.433 289.939 559.5 289.939C557.567 289.939 556 291.506 556 293.439Z" fill="white" fill-opacity="0.6"/>
<circle cx="982.163" cy="502.62" r="2.5" transform="rotate(-64 982.163 502.62)" fill="white" fill-opacity="0.6"/>
<circle cx="503.163" cy="424.62" r="2.5" transform="rotate(-64 503.163 424.62)" fill="white" fill-opacity="0.6"/>
<circle cx="506.663" cy="391.12" r="1" transform="rotate(-64 506.663 391.12)" fill="white" fill-opacity="0.6"/>
<circle cx="422.663" cy="386.12" r="1" transform="rotate(-64 422.663 386.12)" fill="white" fill-opacity="0.6"/>
<path d="M442.697 406.474C444.435 407.321 445.156 409.416 444.309 411.154C443.461 412.891 441.366 413.613 439.629 412.765C437.891 411.918 437.17 409.823 438.017 408.085C438.864 406.348 440.96 405.626 442.697 406.474Z" fill="white" fill-opacity="0.6"/>
<path d="M414.697 433.474C416.435 434.321 417.156 436.416 416.309 438.154C415.461 439.891 413.366 440.613 411.629 439.765C409.891 438.918 409.17 436.823 410.017 435.085C410.864 433.348 412.96 432.626 414.697 433.474Z" fill="white" fill-opacity="0.6"/>
<path d="M442.697 527.474C444.435 528.321 445.156 530.416 444.309 532.154C443.461 533.891 441.366 534.613 439.629 533.765C437.891 532.918 437.17 530.823 438.017 529.085C438.864 527.348 440.96 526.626 442.697 527.474Z" fill="white" fill-opacity="0.6"/>
<circle cx="829" cy="148.939" r="1" fill="white" fill-opacity="0.6"/>
<path d="M791 145.439C791 147.372 789.433 148.939 787.5 148.939C785.567 148.939 784 147.372 784 145.439C784 143.506 785.567 141.939 787.5 141.939C789.433 141.939 791 143.506 791 145.439Z" fill="white" fill-opacity="0.6"/>
<path d="M851 172.439C851 174.372 849.433 175.939 847.5 175.939C845.567 175.939 844 174.372 844 172.439C844 170.506 845.567 168.939 847.5 168.939C849.433 168.939 851 170.506 851 172.439Z" fill="white" fill-opacity="0.6"/>
<path d="M851 293.439C851 295.372 849.433 296.939 847.5 296.939C845.567 296.939 844 295.372 844 293.439C844 291.506 845.567 289.939 847.5 289.939C849.433 289.939 851 291.506 851 293.439Z" fill="white" fill-opacity="0.6"/>
<circle r="2.5" transform="matrix(-1 0 0 1 1333.5 221.439)" fill="white" fill-opacity="0.6"/>
<circle r="2.5" transform="matrix(-1 0 0 1 1205.5 187.439)" fill="white" fill-opacity="0.6"/>
<circle r="1" transform="matrix(-1 0 0 1 1202 153.939)" fill="white" fill-opacity="0.6"/>
<circle r="1" transform="matrix(-0.438371 -0.898794 -0.898794 0.438371 1112.18 186.12)" fill="white" fill-opacity="0.6"/>
<path d="M1152.15 179.474C1150.41 180.321 1149.69 182.416 1150.53 184.154C1151.38 185.891 1153.48 186.613 1155.21 185.765C1156.95 184.918 1157.67 182.823 1156.83 181.085C1155.98 179.348 1153.88 178.626 1152.15 179.474Z" fill="white" fill-opacity="0.6"/>
<path d="M1092.15 206.474C1090.41 207.321 1089.69 209.416 1090.53 211.154C1091.38 212.891 1093.48 213.613 1095.21 212.765C1096.95 211.918 1097.67 209.823 1096.83 208.085C1095.98 206.348 1093.88 205.626 1092.15 206.474Z" fill="white" fill-opacity="0.6"/>
<path d="M1120.15 233.474C1118.41 234.321 1117.69 236.416 1118.53 238.154C1119.38 239.891 1121.48 240.613 1123.21 239.765C1124.95 238.918 1125.67 236.823 1124.83 235.085C1123.98 233.348 1121.88 232.626 1120.15 233.474Z" fill="white" fill-opacity="0.6"/>
<circle r="1" transform="matrix(-1 0 0 1 1286 148.939)" fill="white" fill-opacity="0.6"/>
<path d="M1324 145.439C1324 147.372 1325.57 148.939 1327.5 148.939C1329.43 148.939 1331 147.372 1331 145.439C1331 143.506 1329.43 141.939 1327.5 141.939C1325.57 141.939 1324 143.506 1324 145.439Z" fill="white" fill-opacity="0.6"/>
<path d="M1292 199.439C1292 201.372 1293.57 202.939 1295.5 202.939C1297.43 202.939 1299 201.372 1299 199.439C1299 197.506 1297.43 195.939 1295.5 195.939C1293.57 195.939 1292 197.506 1292 199.439Z" fill="white" fill-opacity="0.6"/>
<path d="M1264 293.439C1264 295.372 1265.57 296.939 1267.5 296.939C1269.43 296.939 1271 295.372 1271 293.439C1271 291.506 1269.43 289.939 1267.5 289.939C1265.57 289.939 1264 291.506 1264 293.439Z" fill="white" fill-opacity="0.6"/>
<circle cx="1246.16" cy="462.62" r="2.5" transform="rotate(-64 1246.16 462.62)" fill="white" fill-opacity="0.6"/>
<circle cx="1214.66" cy="391.12" r="1" transform="rotate(-64 1214.66 391.12)" fill="white" fill-opacity="0.6"/>
<path d="M1150.7 527.474C1152.43 528.321 1153.16 530.416 1152.31 532.154C1151.46 533.891 1149.37 534.613 1147.63 533.765C1145.89 532.918 1145.17 530.823 1146.02 529.085C1146.86 527.348 1148.96 526.626 1150.7 527.474Z" fill="white" fill-opacity="0.6"/>
<path d="M966.843 304.439C966.843 306.372 968.41 307.939 970.343 307.939C972.276 307.939 973.843 306.372 973.843 304.439C973.843 302.506 972.276 300.939 970.343 300.939C968.41 300.939 966.843 302.506 966.843 304.439Z" fill="white" fill-opacity="0.6"/>
<circle cx="949.006" cy="473.62" r="2.5" transform="rotate(-64 949.006 473.62)" fill="white" fill-opacity="0.6"/>
<circle cx="1023.01" cy="465.62" r="2.5" transform="rotate(-64 1023.01 465.62)" fill="white" fill-opacity="0.6"/>
<circle cx="996.506" cy="401.12" r="1" transform="rotate(-64 996.506 401.12)" fill="white" fill-opacity="0.6"/>
<path d="M962.54 447.474C964.277 448.321 964.999 450.416 964.152 452.154C963.304 453.891 961.209 454.613 959.471 453.765C957.734 452.918 957.013 450.823 957.86 449.085C958.707 447.348 960.803 446.626 962.54 447.474Z" fill="white" fill-opacity="0.6"/>
<path d="M1016.54 542.474C1018.28 543.321 1019 545.416 1018.15 547.154C1017.3 548.891 1015.21 549.613 1013.47 548.765C1011.73 547.918 1011.01 545.823 1011.86 544.085C1012.71 542.348 1014.8 541.626 1016.54 542.474Z" fill="white" fill-opacity="0.6"/>
<circle cx="484.343" cy="232.439" r="2.5" fill="white" fill-opacity="0.6"/>
<circle cx="705.663" cy="197.12" r="1" transform="rotate(-64 705.663 197.12)" fill="white" fill-opacity="0.6"/>
<path d="M665.697 190.474C667.435 191.321 668.156 193.416 667.309 195.154C666.461 196.891 664.366 197.613 662.629 196.765C660.891 195.918 660.17 193.823 661.017 192.085C661.864 190.348 663.96 189.626 665.697 190.474Z" fill="white" fill-opacity="0.6"/>
<circle cx="193.5" cy="28.4395" r="2.5" fill="white" fill-opacity="0.6"/>
<circle r="2.5" transform="matrix(-0.438371 -0.898794 -0.898794 0.438371 1015.68 513.62)" fill="white" fill-opacity="0.6"/>
<circle r="2.5" transform="matrix(-0.438371 -0.898794 -0.898794 0.438371 606.68 435.62)" fill="white" fill-opacity="0.6"/>
<circle r="1" transform="matrix(-0.438371 -0.898794 -0.898794 0.438371 603.18 402.12)" fill="white" fill-opacity="0.6"/>
<path d="M667.146 417.474C665.408 418.321 664.687 420.416 665.534 422.154C666.382 423.891 668.477 424.613 670.214 423.765C671.952 422.918 672.673 420.823 671.826 419.085C670.978 417.348 668.883 416.626 667.146 417.474Z" fill="white" fill-opacity="0.6"/>
<path d="M759.146 374.474C757.408 375.321 756.687 377.416 757.534 379.154C758.382 380.891 760.477 381.613 762.214 380.765C763.952 379.918 764.673 377.823 763.826 376.085C762.978 374.348 760.883 373.626 759.146 374.474Z" fill="white" fill-opacity="0.6"/>
<circle r="2.5" transform="matrix(-1 0 0 1 603.343 665.439)" fill="white" fill-opacity="0.6"/>
<circle r="2.5" transform="matrix(-1 0 0 1 475.343 631.439)" fill="white" fill-opacity="0.6"/>
<circle r="1" transform="matrix(-1 0 0 1 471.843 597.939)" fill="white" fill-opacity="0.6"/>
<circle r="1" transform="matrix(-1 0 0 1 555.843 592.939)" fill="white" fill-opacity="0.6"/>
<path d="M523.54 827.474C525.277 828.321 525.999 830.416 525.152 832.154C524.304 833.891 522.209 834.613 520.471 833.765C518.734 832.918 518.013 830.823 518.86 829.085C519.707 827.348 521.803 826.626 523.54 827.474Z" fill="white" fill-opacity="0.6"/>
<circle cx="51.3429" cy="665.439" r="2.5" fill="white" fill-opacity="0.6"/>
<circle cx="182.843" cy="597.939" r="1" fill="white" fill-opacity="0.6"/>
<circle cx="272.663" cy="630.12" r="1" transform="rotate(-64 272.663 630.12)" fill="white" fill-opacity="0.6"/>
<path d="M292.697 650.474C294.435 651.321 295.156 653.416 294.309 655.154C293.461 656.891 291.366 657.613 289.629 656.765C287.891 655.918 287.17 653.823 288.017 652.085C288.864 650.348 290.96 649.626 292.697 650.474Z" fill="white" fill-opacity="0.6"/>
<path d="M292.697 771.474C294.435 772.321 295.156 774.416 294.309 776.154C293.461 777.891 291.366 778.613 289.629 777.765C287.891 776.918 287.17 774.823 288.017 773.085C288.864 771.348 290.96 770.626 292.697 771.474Z" fill="white" fill-opacity="0.6"/>
<circle r="1" transform="matrix(-0.438371 -0.898794 -0.898794 0.438371 254.18 830.12)" fill="white" fill-opacity="0.6"/>
<path d="M294.146 823.474C292.408 824.321 291.687 826.416 292.534 828.154C293.382 829.891 295.477 830.613 297.214 829.765C298.952 828.918 299.673 826.823 298.826 825.085C297.978 823.348 295.883 822.626 294.146 823.474Z" fill="white" fill-opacity="0.6"/>
<circle r="2.5" transform="matrix(-1 0 0 1 1357.34 680.439)" fill="white" fill-opacity="0.6"/>
<circle r="2.5" transform="matrix(-1 0 0 1 1229.34 646.439)" fill="white" fill-opacity="0.6"/>
<path d="M1347.84 604.439C1347.84 606.372 1349.41 607.939 1351.34 607.939C1353.28 607.939 1354.84 606.372 1354.84 604.439C1354.84 602.506 1353.28 600.939 1351.34 600.939C1349.41 600.939 1347.84 602.506 1347.84 604.439Z" fill="white" fill-opacity="0.6"/>
<path d="M1315.84 658.439C1315.84 660.372 1317.41 661.939 1319.34 661.939C1321.28 661.939 1322.84 660.372 1322.84 658.439C1322.84 656.506 1321.28 654.939 1319.34 654.939C1317.41 654.939 1315.84 656.506 1315.84 658.439Z" fill="white" fill-opacity="0.6"/>
<path d="M1287.84 752.439C1287.84 754.372 1289.41 755.939 1291.34 755.939C1293.28 755.939 1294.84 754.372 1294.84 752.439C1294.84 750.506 1293.28 748.939 1291.34 748.939C1289.41 748.939 1287.84 750.506 1287.84 752.439Z" fill="white" fill-opacity="0.6"/>
<circle cx="753.5" cy="590.439" r="2.5" fill="white" fill-opacity="0.6"/>
<circle cx="1026.66" cy="645.12" r="1" transform="rotate(-64 1026.66 645.12)" fill="white" fill-opacity="0.6"/>
<path d="M1046.7 665.474C1048.43 666.321 1049.16 668.416 1048.31 670.154C1047.46 671.891 1045.37 672.613 1043.63 671.765C1041.89 670.918 1041.17 668.823 1042.02 667.085C1042.86 665.348 1044.96 664.626 1046.7 665.474Z" fill="white" fill-opacity="0.6"/>
<path d="M1046.7 786.474C1048.43 787.321 1049.16 789.416 1048.31 791.154C1047.46 792.891 1045.37 793.613 1043.63 792.765C1041.89 791.918 1041.17 789.823 1042.02 788.085C1042.86 786.348 1044.96 785.626 1046.7 786.474Z" fill="white" fill-opacity="0.6"/>
<circle cx="958.5" cy="516.439" r="2.5" fill="white" fill-opacity="0.6"/>
<circle cx="642.5" cy="442.439" r="2.5" fill="white" fill-opacity="0.6"/>
<circle cx="646" cy="408.939" r="1" fill="white" fill-opacity="0.6"/>
<path d="M874.843 752.439C874.843 754.372 873.276 755.939 871.343 755.939C869.41 755.939 867.843 754.372 867.843 752.439C867.843 750.506 869.41 748.939 871.343 748.939C873.276 748.939 874.843 750.506 874.843 752.439Z" fill="white" fill-opacity="0.6"/>
</svg>
